0
SECTION
2
ENTITIES
0
POLYLINE
8
0
66
1
70
8
62
5
0
VERTEX
8
0
10
3
20
1.2
30
0
0
VERTEX
8
0
10
4.6
20
1.2
30
0
0
VERTEX
8
0
10
4.6
20
2.8
30
0
0
VERTEX
8
0
10
3
20
2.8
30
0
0
VERTEX
8
0
10
3
20
1.2
30
0
0
SEQEND
0
LINE
8
0
62
7
10
3
20
2.85
11
4.6
21
2.85
0
TEXT
8
0
62
7
10
3.8
20
2.92
40
0.05
1
40
0
LINE
8
0
62
7
10
4.65
20
1.2
11
4.65
21
2.8
0
TEXT
8
0
10
4.67
20
2
40
0.05
1
40
0
LINE
8
0
62
8
10
3.1
20
1.28
11
4.5
21
1.28
0
LINE
8
0
62
8
10
4.52
20
1.3
11
4.52
21
2.7
0
LINE
8
0
62
8
10
4.5
20
2.72
11
3.1
21
2.72
0
LINE
8
0
62
8
10
3.08
20
2.7
11
3.08
21
1.3
0
ARC
8
0
62
8
10
3.1
20
1.3
40
0.02
50
180
51
270
0
ARC
8
0
62
8
10
4.5
20
1.3
40
0.02
50
270
51
0
0
ARC
8
0
62
8
10
4.5
20
2.7
40
0.02
50
0
51
90
0
ARC
8
0
62
8
10
3.1
20
2.7
40
0.02
50
90
51
180
0
LINE
8
0
62
8
10
3.12
20
1.3
11
4.48
21
1.3
0
LINE
8
0
62
8
10
4.5
20
1.32
11
4.5
21
2.68
0
LINE
8
0
62
8
10
4.48
20
2.7
11
3.12
21
2.7
0
LINE
8
0
62
8
10
3.1
20
2.68
11
3.1
21
1.32
0
ARC
8
0
62
8
10
3.12
20
1.32
40
0.02
50
180
51
270
0
ARC
8
0
62
8
10
4.48
20
1.32
40
0.02
50
270
51
0
0
ARC
8
0
62
8
10
4.48
20
2.68
40
0.02
50
0
51
90
0
ARC
8
0
62
8
10
3.12
20
2.68
40
0.02
50
90
51
180
0
LINE
8
0
10
4.461
20
2.72
11
3.9276666666667
21
2.1866666666667
62
8
0
LINE
8
0
10
3.9276666666667
20
2.1866666666667
11
4.461
21
2.72
62
8
0
LINE
8
0
10
4.52
20
2.661
11
3.9866666666667
21
2.1276666666667
62
8
0
LINE
8
0
10
3.9866666666667
20
2.1276666666667
11
4.52
21
2.661
62
8
0
LINE
8
0
10
4.461
20
2.7
11
3.9856666666667
21
2.2066666666667
62
8
0
LINE
8
0
10
3.9856666666667
20
2.2066666666667
11
4.461
21
2.7
62
8
0
LINE
8
0
10
4.5
20
2.661
11
3.9866666666667
21
2.1676666666667
62
8
0
LINE
8
0
10
3.9866666666667
20
2.1676666666667
11
4.5
21
2.661
62
8
0
CIRCLE
8
0
10
3.1
20
1.2873
40
0.0127
0
CIRCLE
8
0
10
4.5
20
1.2873
40
0.0127
0
CIRCLE
8
0
10
3.1
20
2.7127
40
0.0127
0
CIRCLE
8
0
10
4.5
20
2.7127
40
0.0127
0
LINE
8
0
62
1
10
3.1
20
1.2873
11
3
21
1.06
0
LINE
8
0
62
1
10
3.1
20
2.7127
11
3
21
1.06
0
LINE
8
0
62
1
10
3
20
1.06
11
2.7
21
1.06
0
TEXT
8
0
62
0
10
2.7
20
1.07
40
0.05
1
2∅1/4"
0
LINE
8
0
62
1
10
4.5
20
1.2873
11
4.4
21
1.06
0
LINE
8
0
62
1
10
4.5
20
2.7127
11
4.4
21
1.06
0
LINE
8
0
62
1
10
4.4
20
1.06
11
4.1
21
1.06
0
TEXT
8
0
62
0
10
4.1
20
1.07
40
0.05
1
2∅1/4"
0
TEXT
8
0
10
3
20
0.6
40
0.1
1
4θ1/4"
0
TEXT
8
0
10
3
20
0.4
40
0.1
1
1 1/4"∅: 1@0.05, 4@0.10,
0
TEXT
8
0
10
3
20
0.2
40
0.1
1
Rst. @0.20 C/E
0
TEXT
8
0
10
3.8
20
4.5
40
0.1
1
pa
0
POLYLINE
8
0
66
1
70
8
62
5
0
VERTEX
8
0
10
6.6
20
1.2
30
0
0
VERTEX
8
0
10
8.6
20
1.2
30
0
0
VERTEX
8
0
10
8.6
20
3.2
30
0
0
VERTEX
8
0
10
6.6
20
3.2
30
0
0
VERTEX
8
0
10
6.6
20
1.2
30
0
0
SEQEND
0
LINE
8
0
62
7
10
6.6
20
3.25
11
8.6
21
3.25
0
TEXT
8
0
62
7
10
7.6
20
3.32
40
0.05
1
50
0
LINE
8
0
62
7
10
8.65
20
1.2
11
8.65
21
3.2
0
TEXT
8
0
10
8.67
20
2.2
40
0.05
1
50
0
LINE
8
0
62
8
10
6.7
20
1.28
11
8.5
21
1.28
0
LINE
8
0
62
8
10
8.52
20
1.3
11
8.52
21
3.1
0
LINE
8
0
62
8
10
8.5
20
3.12
11
6.7
21
3.12
0
LINE
8
0
62
8
10
6.68
20
3.1
11
6.68
21
1.3
0
ARC
8
0
62
8
10
6.7
20
1.3
40
0.02
50
180
51
270
0
ARC
8
0
62
8
10
8.5
20
1.3
40
0.02
50
270
51
0
0
ARC
8
0
62
8
10
8.5
20
3.1
40
0.02
50
0
51
90
0
ARC
8
0
62
8
10
6.7
20
3.1
40
0.02
50
90
51
180
0
LINE
8
0
62
8
10
6.72
20
1.3
11
8.48
21
1.3
0
LINE
8
0
62
8
10
8.5
20
1.32
11
8.5
21
3.08
0
LINE
8
0
62
8
10
8.48
20
3.1
11
6.72
21
3.1
0
LINE
8
0
62
8
10
6.7
20
3.08
11
6.7
21
1.32
0
ARC
8
0
62
8
10
6.72
20
1.32
40
0.02
50
180
51
270
0
ARC
8
0
62
8
10
8.48
20
1.32
40
0.02
50
270
51
0
0
ARC
8
0
62
8
10
8.48
20
3.08
40
0.02
50
0
51
90
0
ARC
8
0
62
8
10
6.72
20
3.08
40
0.02
50
90
51
180
0
LINE
8
0
10
8.461
20
3.12
11
7.7943333333333
21
2.4533333333333
62
8
0
LINE
8
0
10
7.7943333333333
20
2.4533333333333
11
8.461
21
3.12
62
8
0
LINE
8
0
10
8.52
20
3.061
11
7.8533333333333
21
2.3943333333333
62
8
0
LINE
8
0
10
7.8533333333333
20
2.3943333333333
11
8.52
21
3.061
62
8
0
LINE
8
0
10
8.461
20
3.1
11
7.8523333333333
21
2.4733333333333
62
8
0
LINE
8
0
10
7.8523333333333
20
2.4733333333333
11
8.461
21
3.1
62
8
0
LINE
8
0
10
8.5
20
3.061
11
7.8533333333333
21
2.4343333333333
62
8
0
LINE
8
0
10
7.8533333333333
20
2.4343333333333
11
8.5
21
3.061
62
8
0
CIRCLE
8
0
10
6.7
20
1.2873
40
0.0127
0
CIRCLE
8
0
10
8.5
20
1.2873
40
0.0127
0
CIRCLE
8
0
10
6.7
20
3.1127
40
0.0127
0
CIRCLE
8
0
10
8.5
20
3.1127
40
0.0127
0
LINE
8
0
62
1
10
6.7
20
1.2873
11
6.6
21
1.06
0
LINE
8
0
62
1
10
6.7
20
3.1127
11
6.6
21
1.06
0
LINE
8
0
62
1
10
6.6
20
1.06
11
6.3
21
1.06
0
TEXT
8
0
62
0
10
6.3
20
1.07
40
0.05
1
2∅1/4"
0
LINE
8
0
62
1
10
8.5
20
1.2873
11
8.4
21
1.06
0
LINE
8
0
62
1
10
8.5
20
3.1127
11
8.4
21
1.06
0
LINE
8
0
62
1
10
8.4
20
1.06
11
8.1
21
1.06
0
TEXT
8
0
62
0
10
8.1
20
1.07
40
0.05
1
2∅1/4"
0
TEXT
8
0
10
6.6
20
0.6
40
0.1
1
4θ1/4"
0
TEXT
8
0
10
6.6
20
0.4
40
0.1
1
1 1/4"∅: 1@0.05, 4@0.10,
0
TEXT
8
0
10
6.6
20
0.2
40
0.1
1
Rst. @0.20 C/E
0
TEXT
8
0
10
7.6
20
4.5
40
0.1
1
pb
0
POLYLINE
8
0
66
1
70
8
62
5
0
VERTEX
8
0
10
10.6
20
1.2
30
0
0
VERTEX
8
0
10
13
20
1.2
30
0
0
VERTEX
8
0
10
13
20
3.6
30
0
0
VERTEX
8
0
10
10.6
20
3.6
30
0
0
VERTEX
8
0
10
10.6
20
1.2
30
0
0
SEQEND
0
LINE
8
0
62
7
10
10.6
20
3.65
11
13
21
3.65
0
TEXT
8
0
62
7
10
11.8
20
3.72
40
0.05
1
60
0
LINE
8
0
62
7
10
13.05
20
1.2
11
13.05
21
3.6
0
TEXT
8
0
10
13.07
20
2.4
40
0.05
1
60
0
LINE
8
0
62
8
10
10.7
20
1.28
11
12.9
21
1.28
0
LINE
8
0
62
8
10
12.92
20
1.3
11
12.92
21
3.5
0
LINE
8
0
62
8
10
12.9
20
3.52
11
10.7
21
3.52
0
LINE
8
0
62
8
10
10.68
20
3.5
11
10.68
21
1.3
0
ARC
8
0
62
8
10
10.7
20
1.3
40
0.02
50
180
51
270
0
ARC
8
0
62
8
10
12.9
20
1.3
40
0.02
50
270
51
0
0
ARC
8
0
62
8
10
12.9
20
3.5
40
0.02
50
0
51
90
0
ARC
8
0
62
8
10
10.7
20
3.5
40
0.02
50
90
51
180
0
LINE
8
0
62
8
10
10.72
20
1.3
11
12.88
21
1.3
0
LINE
8
0
62
8
10
12.9
20
1.32
11
12.9
21
3.48
0
LINE
8
0
62
8
10
12.88
20
3.5
11
10.72
21
3.5
0
LINE
8
0
62
8
10
10.7
20
3.48
11
10.7
21
1.32
0
ARC
8
0
62
8
10
10.72
20
1.32
40
0.02
50
180
51
270
0
ARC
8
0
62
8
10
12.88
20
1.32
40
0.02
50
270
51
0
0
ARC
8
0
62
8
10
12.88
20
3.48
40
0.02
50
0
51
90
0
ARC
8
0
62
8
10
10.72
20
3.48
40
0.02
50
90
51
180
0
LINE
8
0
10
12.861
20
3.52
11
12.061
21
2.72
62
8
0
LINE
8
0
10
12.061
20
2.72
11
12.861
21
3.52
62
8
0
LINE
8
0
10
12.92
20
3.461
11
12.12
21
2.661
62
8
0
LINE
8
0
10
12.12
20
2.661
11
12.92
21
3.461
62
8
0
LINE
8
0
10
12.861
20
3.5
11
12.119
21
2.74
62
8
0
LINE
8
0
10
12.119
20
2.74
11
12.861
21
3.5
62
8
0
LINE
8
0
10
12.9
20
3.461
11
12.12
21
2.701
62
8
0
LINE
8
0
10
12.12
20
2.701
11
12.9
21
3.461
62
8
0
CIRCLE
8
0
10
10.7
20
1.2873
40
0.0127
0
CIRCLE
8
0
10
12.9
20
1.2873
40
0.0127
0
CIRCLE
8
0
10
10.7
20
3.5127
40
0.0127
0
CIRCLE
8
0
10
12.9
20
3.5127
40
0.0127
0
LINE
8
0
62
1
10
10.7
20
1.2873
11
10.6
21
1.06
0
LINE
8
0
62
1
10
10.7
20
3.5127
11
10.6
21
1.06
0
LINE
8
0
62
1
10
10.6
20
1.06
11
10.3
21
1.06
0
TEXT
8
0
62
0
10
10.3
20
1.07
40
0.05
1
2∅1/4"
0
LINE
8
0
62
1
10
12.9
20
1.2873
11
12.8
21
1.06
0
LINE
8
0
62
1
10
12.9
20
3.5127
11
12.8
21
1.06
0
LINE
8
0
62
1
10
12.8
20
1.06
11
12.5
21
1.06
0
TEXT
8
0
62
0
10
12.5
20
1.07
40
0.05
1
2∅1/4"
0
TEXT
8
0
10
10.6
20
0.6
40
0.1
1
4θ1/4"
0
TEXT
8
0
10
10.6
20
0.4
40
0.1
1
1 1/4"∅: 1@0.05, 4@0.10,
0
TEXT
8
0
10
10.6
20
0.2
40
0.1
1
Rst. @0.20 C/E
0
TEXT
8
0
10
11.8
20
4.5
40
0.1
1
pc
0
POLYLINE
8
0
66
1
70
8
62
5
0
VERTEX
8
0
10
15
20
1.2
30
0
0
VERTEX
8
0
10
17.8
20
1.2
30
0
0
VERTEX
8
0
10
17.8
20
4
30
0
0
VERTEX
8
0
10
15
20
4
30
0
0
VERTEX
8
0
10
15
20
1.2
30
0
0
SEQEND
0
LINE
8
0
62
7
10
15
20
4.05
11
17.8
21
4.05
0
TEXT
8
0
62
7
10
16.4
20
4.12
40
0.05
1
70
0
LINE
8
0
62
7
10
17.85
20
1.2
11
17.85
21
4
0
TEXT
8
0
10
17.87
20
2.6
40
0.05
1
70
0
LINE
8
0
62
8
10
15.1
20
1.28
11
17.7
21
1.28
0
LINE
8
0
62
8
10
17.72
20
1.3
11
17.72
21
3.9
0
LINE
8
0
62
8
10
17.7
20
3.92
11
15.1
21
3.92
0
LINE
8
0
62
8
10
15.08
20
3.9
11
15.08
21
1.3
0
ARC
8
0
62
8
10
15.1
20
1.3
40
0.02
50
180
51
270
0
ARC
8
0
62
8
10
17.7
20
1.3
40
0.02
50
270
51
0
0
ARC
8
0
62
8
10
17.7
20
3.9
40
0.02
50
0
51
90
0
ARC
8
0
62
8
10
15.1
20
3.9
40
0.02
50
90
51
180
0
LINE
8
0
62
8
10
15.12
20
1.3
11
17.68
21
1.3
0
LINE
8
0
62
8
10
17.7
20
1.32
11
17.7
21
3.88
0
LINE
8
0
62
8
10
17.68
20
3.9
11
15.12
21
3.9
0
LINE
8
0
62
8
10
15.1
20
3.88
11
15.1
21
1.32
0
ARC
8
0
62
8
10
15.12
20
1.32
40
0.02
50
180
51
270
0
ARC
8
0
62
8
10
17.68
20
1.32
40
0.02
50
270
51
0
0
ARC
8
0
62
8
10
17.68
20
3.88
40
0.02
50
0
51
90
0
ARC
8
0
62
8
10
15.12
20
3.88
40
0.02
50
90
51
180
0
LINE
8
0
10
17.661
20
3.92
11
16.727666666667
21
2.9866666666667
62
8
0
LINE
8
0
10
16.727666666667
20
2.9866666666667
11
17.661
21
3.92
62
8
0
LINE
8
0
10
17.72
20
3.861
11
16.786666666667
21
2.9276666666667
62
8
0
LINE
8
0
10
16.786666666667
20
2.9276666666667
11
17.72
21
3.861
62
8
0
LINE
8
0
10
17.661
20
3.9
11
16.785666666667
21
3.0066666666667
62
8
0
LINE
8
0
10
16.785666666667
20
3.0066666666667
11
17.661
21
3.9
62
8
0
LINE
8
0
10
17.7
20
3.861
11
16.786666666667
21
2.9676666666667
62
8
0
LINE
8
0
10
16.786666666667
20
2.9676666666667
11
17.7
21
3.861
62
8
0
CIRCLE
8
0
10
15.1
20
1.2873
40
0.0127
0
CIRCLE
8
0
10
17.7
20
1.2873
40
0.0127
0
CIRCLE
8
0
10
15.1
20
3.9127
40
0.0127
0
CIRCLE
8
0
10
17.7
20
3.9127
40
0.0127
0
LINE
8
0
62
1
10
15.1
20
1.2873
11
15
21
1.06
0
LINE
8
0
62
1
10
15.1
20
3.9127
11
15
21
1.06
0
LINE
8
0
62
1
10
15
20
1.06
11
14.7
21
1.06
0
TEXT
8
0
62
0
10
14.7
20
1.07
40
0.05
1
2∅1/4"
0
LINE
8
0
62
1
10
17.7
20
1.2873
11
17.6
21
1.06
0
LINE
8
0
62
1
10
17.7
20
3.9127
11
17.6
21
1.06
0
LINE
8
0
62
1
10
17.6
20
1.06
11
17.3
21
1.06
0
TEXT
8
0
62
0
10
17.3
20
1.07
40
0.05
1
2∅1/4"
0
TEXT
8
0
10
15
20
0.6
40
0.1
1
4θ1/4"
0
TEXT
8
0
10
15
20
0.4
40
0.1
1
1 1/4"∅: 1@0.05, 4@0.10,
0
TEXT
8
0
10
15
20
0.2
40
0.1
1
Rst. @0.20 C/E
0
TEXT
8
0
10
16.4
20
4.5
40
0.1
1
pd
0
LINE
8
0
10
5.6
20
0
30
0
11
5.6
21
4.7
31
0
62
1
0
LINE
8
0
10
9.6
20
0
30
0
11
9.6
21
4.7
31
0
62
1
0
LINE
8
0
10
14
20
0
30
0
11
14
21
4.7
31
0
62
1
0
LINE
8
0
10
18.8
20
0
30
0
11
18.8
21
4.7
31
0
62
1
0
POLYLINE
8
0
66
1
70
8
62
1
0
VERTEX
8
0
10
0
20
0
0
VERTEX
8
0
10
18.8
20
0
0
VERTEX
8
0
10
18.8
20
5.3
0
VERTEX
8
0
10
0
20
5.3
0
VERTEX
8
0
10
0
20
0
0
TEXT
8
0
10
0.2
20
5
40
0.1
1
ESCALA:
0
TEXT
8
0
10
0.3
20
4.8
40
0.1
1
 1/25
0
TEXT
8
0
10
9.4
20
4.9
40
0.1
1
CUADRO DE COLUMNA
0
TEXT
8
0
10
0.2
20
4.5
40
0.1
1
NIVEL
0
TEXT
8
0
10
1.15
20
4.5
40
0.1
1
CONCRETO
0
TEXT
8
0
10
1
20
4.3
40
0.1
1
fc'(Kg/cm2)
0
TEXT
8
0
10
0.2
20
3.9
40
0.1
1
1° PISO
0
TEXT
8
0
10
0.2
20
3.7
40
0.1
1
2° PISO
0
TEXT
8
0
10
0.2
20
3.5
40
0.1
1
AZOTEA
0
TEXT
8
0
10
1.3
20
3.5
40
0.1
1
175
0
TEXT
8
0
10
0.5
20
0.5
40
0.1
1
ESFUERZO Y
0
TEXT
8
0
10
0.5
20
0.3
40
0.1
1
ESTRIBAJE
0
SEQEND
62
1
0
LINE
8
0
10
1
20
1
11
1
21
5.3
62
1
0
LINE
8
0
10
1
20
5.3
11
1
21
1
62
1
0
LINE
8
0
10
2
20
0
11
2
21
4.7
62
1
0
LINE
8
0
10
2
20
4.7
11
2
21
0
62
1
0
LINE
8
0
10
0
20
4.7
11
18.8
21
4.7
62
1
0
LINE
8
0
10
18.8
20
4.7
11
0
21
4.7
62
1
0
LINE
8
0
10
0
20
4.2
11
18.8
21
4.2
0
LINE
8
0
10
18.8
20
4.2
11
0
21
4.2
62
1
0
LINE
8
0
10
0
20
1
11
18.8
21
1
0
LINE
8
0
10
18.8
20
1
11
0
21
1
62
1
0
ENDSEC
0
EOF