0
SECTION
2
ENTITIES
0
POLYLINE
8
0
66
1
70
8
62
5
0
VERTEX
8
0
10
3
20
1.2
30
0
0
VERTEX
8
0
10
4.6
20
1.2
30
0
0
VERTEX
8
0
10
4.6
20
2.8
30
0
0
VERTEX
8
0
10
3
20
2.8
30
0
0
VERTEX
8
0
10
3
20
1.2
30
0
0
SEQEND
0
LINE
8
0
62
7
10
3
20
2.85
11
4.6
21
2.85
0
TEXT
8
0
62
7
10
3.8
20
2.92
40
0.05
1
40
0
LINE
8
0
62
7
10
4.65
20
1.2
11
4.65
21
2.8
0
TEXT
8
0
10
4.67
20
2
40
0.05
1
40
0
LINE
8
0
62
8
10
3.1
20
1.28
11
4.5
21
1.28
0
LINE
8
0
62
8
10
4.52
20
1.3
11
4.52
21
2.7
0
LINE
8
0
62
8
10
4.5
20
2.72
11
3.1
21
2.72
0
LINE
8
0
62
8
10
3.08
20
2.7
11
3.08
21
1.3
0
ARC
8
0
62
8
10
3.1
20
1.3
40
0.02
50
180
51
270
0
ARC
8
0
62
8
10
4.5
20
1.3
40
0.02
50
270
51
0
0
ARC
8
0
62
8
10
4.5
20
2.7
40
0.02
50
0
51
90
0
ARC
8
0
62
8
10
3.1
20
2.7
40
0.02
50
90
51
180
0
LINE
8
0
62
8
10
3.12
20
1.3
11
4.48
21
1.3
0
LINE
8
0
62
8
10
4.5
20
1.32
11
4.5
21
2.68
0
LINE
8
0
62
8
10
4.48
20
2.7
11
3.12
21
2.7
0
LINE
8
0
62
8
10
3.1
20
2.68
11
3.1
21
1.32
0
ARC
8
0
62
8
10
3.12
20
1.32
40
0.02
50
180
51
270
0
ARC
8
0
62
8
10
4.48
20
1.32
40
0.02
50
270
51
0
0
ARC
8
0
62
8
10
4.48
20
2.68
40
0.02
50
0
51
90
0
ARC
8
0
62
8
10
3.12
20
2.68
40
0.02
50
90
51
180
0
LINE
8
0
10
4.461
20
2.72
11
3.9276666666667
21
2.1866666666667
62
8
0
LINE
8
0
10
3.9276666666667
20
2.1866666666667
11
4.461
21
2.72
62
8
0
LINE
8
0
10
4.52
20
2.661
11
3.9866666666667
21
2.1276666666667
62
8
0
LINE
8
0
10
3.9866666666667
20
2.1276666666667
11
4.52
21
2.661
62
8
0
LINE
8
0
10
4.461
20
2.7
11
3.9856666666667
21
2.2066666666667
62
8
0
LINE
8
0
10
3.9856666666667
20
2.2066666666667
11
4.461
21
2.7
62
8
0
LINE
8
0
10
4.5
20
2.661
11
3.9866666666667
21
2.1676666666667
62
8
0
LINE
8
0
10
3.9866666666667
20
2.1676666666667
11
4.5
21
2.661
62
8
0
CIRCLE
8
0
10
3.1
20
1.2873
40
0.0127
0
CIRCLE
8
0
10
3.3
20
1.2873
40
0.0127
0
CIRCLE
8
0
10
3.5
20
1.2873
40
0.0127
0
CIRCLE
8
0
10
3.7
20
1.2873
40
0.0127
0
CIRCLE
8
0
10
3.9
20
1.2873
40
0.0127
0
CIRCLE
8
0
10
4.1
20
1.2873
40
0.0127
0
CIRCLE
8
0
10
4.3
20
1.2873
40
0.0127
0
CIRCLE
8
0
10
4.5
20
1.2873
40
0.0127
0
CIRCLE
8
0
10
3.1
20
2.7127
40
0.0127
0
CIRCLE
8
0
10
3.3
20
2.7127
40
0.0127
0
CIRCLE
8
0
10
3.5
20
2.7127
40
0.0127
0
CIRCLE
8
0
10
3.7
20
2.7127
40
0.0127
0
CIRCLE
8
0
10
3.9
20
2.7127
40
0.0127
0
CIRCLE
8
0
10
4.1
20
2.7127
40
0.0127
0
CIRCLE
8
0
10
4.3
20
2.7127
40
0.0127
0
CIRCLE
8
0
10
4.5
20
2.7127
40
0.0127
0
LINE
8
0
62
1
10
3.1
20
1.2873
11
3
21
1.06
0
LINE
8
0
62
1
10
3.1
20
2.7127
11
3
21
1.06
0
LINE
8
0
62
1
10
3
20
1.06
11
2.7
21
1.06
0
TEXT
8
0
62
0
10
2.7
20
1.07
40
0.05
1
2∅1/4"
0
LINE
8
0
62
1
10
3.3
20
1.2873
11
3.2
21
1.06
0
LINE
8
0
62
1
10
3.3
20
2.7127
11
3.2
21
1.06
0
LINE
8
0
62
1
10
3.2
20
1.06
11
2.9
21
1.06
0
TEXT
8
0
62
0
10
2.9
20
1.07
40
0.05
1
2∅1/4"
0
LINE
8
0
62
1
10
3.5
20
1.2873
11
3.4
21
1.06
0
LINE
8
0
62
1
10
3.5
20
2.7127
11
3.4
21
1.06
0
LINE
8
0
62
1
10
3.4
20
1.06
11
3.1
21
1.06
0
TEXT
8
0
62
0
10
3.1
20
1.07
40
0.05
1
2∅1/4"
0
LINE
8
0
62
1
10
3.7
20
1.2873
11
3.6
21
1.06
0
LINE
8
0
62
1
10
3.7
20
2.7127
11
3.6
21
1.06
0
LINE
8
0
62
1
10
3.6
20
1.06
11
3.3
21
1.06
0
TEXT
8
0
62
0
10
3.3
20
1.07
40
0.05
1
2∅1/4"
0
LINE
8
0
62
1
10
3.9
20
1.2873
11
3.8
21
1.06
0
LINE
8
0
62
1
10
3.9
20
2.7127
11
3.8
21
1.06
0
LINE
8
0
62
1
10
3.8
20
1.06
11
3.5
21
1.06
0
TEXT
8
0
62
0
10
3.5
20
1.07
40
0.05
1
2∅1/4"
0
LINE
8
0
62
1
10
4.1
20
1.2873
11
4
21
1.06
0
LINE
8
0
62
1
10
4.1
20
2.7127
11
4
21
1.06
0
LINE
8
0
62
1
10
4
20
1.06
11
3.7
21
1.06
0
TEXT
8
0
62
0
10
3.7
20
1.07
40
0.05
1
2∅1/4"
0
LINE
8
0
62
1
10
4.3
20
1.2873
11
4.2
21
1.06
0
LINE
8
0
62
1
10
4.3
20
2.7127
11
4.2
21
1.06
0
LINE
8
0
62
1
10
4.2
20
1.06
11
3.9
21
1.06
0
TEXT
8
0
62
0
10
3.9
20
1.07
40
0.05
1
2∅1/4"
0
LINE
8
0
62
1
10
4.5
20
1.2873
11
4.4
21
1.06
0
LINE
8
0
62
1
10
4.5
20
2.7127
11
4.4
21
1.06
0
LINE
8
0
62
1
10
4.4
20
1.06
11
4.1
21
1.06
0
TEXT
8
0
62
0
10
4.1
20
1.07
40
0.05
1
2∅1/4"
0
TEXT
8
0
10
3
20
0.6
40
0.1
1
16θ1/4"
0
TEXT
8
0
10
3
20
0.4
40
0.1
1
1 1/4"∅: 1@0.05, 4@0.10,
0
TEXT
8
0
10
3
20
0.2
40
0.1
1
Rst. @0.20 C/E
0
TEXT
8
0
10
3.8
20
4.9
40
0.1
1
pa
0
POLYLINE
8
0
66
1
70
8
62
5
0
VERTEX
8
0
10
6.6
20
1.2
30
0
0
VERTEX
8
0
10
9.8
20
1.2
30
0
0
VERTEX
8
0
10
9.8
20
4.4
30
0
0
VERTEX
8
0
10
6.6
20
4.4
30
0
0
VERTEX
8
0
10
6.6
20
1.2
30
0
0
SEQEND
0
LINE
8
0
62
7
10
6.6
20
4.45
11
9.8
21
4.45
0
TEXT
8
0
62
7
10
8.2
20
4.52
40
0.05
1
80
0
LINE
8
0
62
7
10
9.85
20
1.2
11
9.85
21
4.4
0
TEXT
8
0
10
9.87
20
2.8
40
0.05
1
80
0
LINE
8
0
62
8
10
6.7
20
1.28
11
9.7
21
1.28
0
LINE
8
0
62
8
10
9.72
20
1.3
11
9.72
21
4.3
0
LINE
8
0
62
8
10
9.7
20
4.32
11
6.7
21
4.32
0
LINE
8
0
62
8
10
6.68
20
4.3
11
6.68
21
1.3
0
ARC
8
0
62
8
10
6.7
20
1.3
40
0.02
50
180
51
270
0
ARC
8
0
62
8
10
9.7
20
1.3
40
0.02
50
270
51
0
0
ARC
8
0
62
8
10
9.7
20
4.3
40
0.02
50
0
51
90
0
ARC
8
0
62
8
10
6.7
20
4.3
40
0.02
50
90
51
180
0
LINE
8
0
62
8
10
6.72
20
1.3
11
9.68
21
1.3
0
LINE
8
0
62
8
10
9.7
20
1.32
11
9.7
21
4.28
0
LINE
8
0
62
8
10
9.68
20
4.3
11
6.72
21
4.3
0
LINE
8
0
62
8
10
6.7
20
4.28
11
6.7
21
1.32
0
ARC
8
0
62
8
10
6.72
20
1.32
40
0.02
50
180
51
270
0
ARC
8
0
62
8
10
9.68
20
1.32
40
0.02
50
270
51
0
0
ARC
8
0
62
8
10
9.68
20
4.28
40
0.02
50
0
51
90
0
ARC
8
0
62
8
10
6.72
20
4.28
40
0.02
50
90
51
180
0
LINE
8
0
10
9.661
20
4.32
11
8.5943333333333
21
3.2533333333333
62
8
0
LINE
8
0
10
8.5943333333333
20
3.2533333333333
11
9.661
21
4.32
62
8
0
LINE
8
0
10
9.72
20
4.261
11
8.6533333333333
21
3.1943333333333
62
8
0
LINE
8
0
10
8.6533333333333
20
3.1943333333333
11
9.72
21
4.261
62
8
0
LINE
8
0
10
9.661
20
4.3
11
8.6523333333333
21
3.2733333333333
62
8
0
LINE
8
0
10
8.6523333333333
20
3.2733333333333
11
9.661
21
4.3
62
8
0
LINE
8
0
10
9.7
20
4.261
11
8.6533333333333
21
3.2343333333333
62
8
0
LINE
8
0
10
8.6533333333333
20
3.2343333333333
11
9.7
21
4.261
62
8
0
CIRCLE
8
0
10
6.7
20
1.2873
40
0.0127
0
CIRCLE
8
0
10
9.7
20
1.2873
40
0.0127
0
CIRCLE
8
0
10
6.7
20
4.3127
40
0.0127
0
CIRCLE
8
0
10
9.7
20
4.3127
40
0.0127
0
LINE
8
0
62
1
10
6.7
20
1.2873
11
6.6
21
1.06
0
LINE
8
0
62
1
10
6.7
20
4.3127
11
6.6
21
1.06
0
LINE
8
0
62
1
10
6.6
20
1.06
11
6.3
21
1.06
0
TEXT
8
0
62
0
10
6.3
20
1.07
40
0.05
1
2∅1/4"
0
LINE
8
0
62
1
10
9.7
20
1.2873
11
9.6
21
1.06
0
LINE
8
0
62
1
10
9.7
20
4.3127
11
9.6
21
1.06
0
LINE
8
0
62
1
10
9.6
20
1.06
11
9.3
21
1.06
0
TEXT
8
0
62
0
10
9.3
20
1.07
40
0.05
1
2∅1/4"
0
TEXT
8
0
10
6.6
20
0.6
40
0.1
1
4θ1/4"
0
TEXT
8
0
10
6.6
20
0.4
40
0.1
1
1 1/4"∅: 1@0.05, 4@0.10,
0
TEXT
8
0
10
6.6
20
0.2
40
0.1
1
Rst. @0.20 C/E
0
TEXT
8
0
10
8.2
20
4.9
40
0.1
1
pb
0
POLYLINE
8
0
66
1
70
8
62
5
0
VERTEX
8
0
10
11.8
20
1.2
30
0
0
VERTEX
8
0
10
14.2
20
1.2
30
0
0
VERTEX
8
0
10
14.2
20
3.6
30
0
0
VERTEX
8
0
10
11.8
20
3.6
30
0
0
VERTEX
8
0
10
11.8
20
1.2
30
0
0
SEQEND
0
LINE
8
0
62
7
10
11.8
20
3.65
11
14.2
21
3.65
0
TEXT
8
0
62
7
10
13
20
3.72
40
0.05
1
60
0
LINE
8
0
62
7
10
14.25
20
1.2
11
14.25
21
3.6
0
TEXT
8
0
10
14.27
20
2.4
40
0.05
1
60
0
LINE
8
0
62
8
10
11.9
20
1.28
11
14.1
21
1.28
0
LINE
8
0
62
8
10
14.12
20
1.3
11
14.12
21
3.5
0
LINE
8
0
62
8
10
14.1
20
3.52
11
11.9
21
3.52
0
LINE
8
0
62
8
10
11.88
20
3.5
11
11.88
21
1.3
0
ARC
8
0
62
8
10
11.9
20
1.3
40
0.02
50
180
51
270
0
ARC
8
0
62
8
10
14.1
20
1.3
40
0.02
50
270
51
0
0
ARC
8
0
62
8
10
14.1
20
3.5
40
0.02
50
0
51
90
0
ARC
8
0
62
8
10
11.9
20
3.5
40
0.02
50
90
51
180
0
LINE
8
0
62
8
10
11.92
20
1.3
11
14.08
21
1.3
0
LINE
8
0
62
8
10
14.1
20
1.32
11
14.1
21
3.48
0
LINE
8
0
62
8
10
14.08
20
3.5
11
11.92
21
3.5
0
LINE
8
0
62
8
10
11.9
20
3.48
11
11.9
21
1.32
0
ARC
8
0
62
8
10
11.92
20
1.32
40
0.02
50
180
51
270
0
ARC
8
0
62
8
10
14.08
20
1.32
40
0.02
50
270
51
0
0
ARC
8
0
62
8
10
14.08
20
3.48
40
0.02
50
0
51
90
0
ARC
8
0
62
8
10
11.92
20
3.48
40
0.02
50
90
51
180
0
LINE
8
0
10
14.061
20
3.52
11
13.261
21
2.72
62
8
0
LINE
8
0
10
13.261
20
2.72
11
14.061
21
3.52
62
8
0
LINE
8
0
10
14.12
20
3.461
11
13.32
21
2.661
62
8
0
LINE
8
0
10
13.32
20
2.661
11
14.12
21
3.461
62
8
0
LINE
8
0
10
14.061
20
3.5
11
13.319
21
2.74
62
8
0
LINE
8
0
10
13.319
20
2.74
11
14.061
21
3.5
62
8
0
LINE
8
0
10
14.1
20
3.461
11
13.32
21
2.701
62
8
0
LINE
8
0
10
13.32
20
2.701
11
14.1
21
3.461
62
8
0
CIRCLE
8
0
10
11.9
20
1.2873
40
0.0127
0
CIRCLE
8
0
10
14.1
20
1.2873
40
0.0127
0
CIRCLE
8
0
10
11.9
20
3.5127
40
0.0127
0
CIRCLE
8
0
10
14.1
20
3.5127
40
0.0127
0
LINE
8
0
62
1
10
11.9
20
1.2873
11
11.8
21
1.06
0
LINE
8
0
62
1
10
11.9
20
3.5127
11
11.8
21
1.06
0
LINE
8
0
62
1
10
11.8
20
1.06
11
11.5
21
1.06
0
TEXT
8
0
62
0
10
11.5
20
1.07
40
0.05
1
2∅1/4"
0
LINE
8
0
62
1
10
14.1
20
1.2873
11
14
21
1.06
0
LINE
8
0
62
1
10
14.1
20
3.5127
11
14
21
1.06
0
LINE
8
0
62
1
10
14
20
1.06
11
13.7
21
1.06
0
TEXT
8
0
62
0
10
13.7
20
1.07
40
0.05
1
2∅1/4"
0
TEXT
8
0
10
11.8
20
0.6
40
0.1
1
4θ1/4"
0
TEXT
8
0
10
11.8
20
0.4
40
0.1
1
1 1/4"∅: 1@0.05, 4@0.10,
0
TEXT
8
0
10
11.8
20
0.2
40
0.1
1
Rst. @0.20 C/E
0
TEXT
8
0
10
13
20
4.9
40
0.1
1
pc
0
POLYLINE
8
0
66
1
70
8
62
5
0
VERTEX
8
0
10
16.2
20
1.2
30
0
0
VERTEX
8
0
10
19
20
1.2
30
0
0
VERTEX
8
0
10
19
20
4
30
0
0
VERTEX
8
0
10
16.2
20
4
30
0
0
VERTEX
8
0
10
16.2
20
1.2
30
0
0
SEQEND
0
LINE
8
0
62
7
10
16.2
20
4.05
11
19
21
4.05
0
TEXT
8
0
62
7
10
17.6
20
4.12
40
0.05
1
70
0
LINE
8
0
62
7
10
19.05
20
1.2
11
19.05
21
4
0
TEXT
8
0
10
19.07
20
2.6
40
0.05
1
70
0
LINE
8
0
62
8
10
16.3
20
1.28
11
18.9
21
1.28
0
LINE
8
0
62
8
10
18.92
20
1.3
11
18.92
21
3.9
0
LINE
8
0
62
8
10
18.9
20
3.92
11
16.3
21
3.92
0
LINE
8
0
62
8
10
16.28
20
3.9
11
16.28
21
1.3
0
ARC
8
0
62
8
10
16.3
20
1.3
40
0.02
50
180
51
270
0
ARC
8
0
62
8
10
18.9
20
1.3
40
0.02
50
270
51
0
0
ARC
8
0
62
8
10
18.9
20
3.9
40
0.02
50
0
51
90
0
ARC
8
0
62
8
10
16.3
20
3.9
40
0.02
50
90
51
180
0
LINE
8
0
62
8
10
16.32
20
1.3
11
18.88
21
1.3
0
LINE
8
0
62
8
10
18.9
20
1.32
11
18.9
21
3.88
0
LINE
8
0
62
8
10
18.88
20
3.9
11
16.32
21
3.9
0
LINE
8
0
62
8
10
16.3
20
3.88
11
16.3
21
1.32
0
ARC
8
0
62
8
10
16.32
20
1.32
40
0.02
50
180
51
270
0
ARC
8
0
62
8
10
18.88
20
1.32
40
0.02
50
270
51
0
0
ARC
8
0
62
8
10
18.88
20
3.88
40
0.02
50
0
51
90
0
ARC
8
0
62
8
10
16.32
20
3.88
40
0.02
50
90
51
180
0
LINE
8
0
10
18.861
20
3.92
11
17.927666666667
21
2.9866666666667
62
8
0
LINE
8
0
10
17.927666666667
20
2.9866666666667
11
18.861
21
3.92
62
8
0
LINE
8
0
10
18.92
20
3.861
11
17.986666666667
21
2.9276666666667
62
8
0
LINE
8
0
10
17.986666666667
20
2.9276666666667
11
18.92
21
3.861
62
8
0
LINE
8
0
10
18.861
20
3.9
11
17.985666666667
21
3.0066666666667
62
8
0
LINE
8
0
10
17.985666666667
20
3.0066666666667
11
18.861
21
3.9
62
8
0
LINE
8
0
10
18.9
20
3.861
11
17.986666666667
21
2.9676666666667
62
8
0
LINE
8
0
10
17.986666666667
20
2.9676666666667
11
18.9
21
3.861
62
8
0
CIRCLE
8
0
10
16.3
20
1.2873
40
0.0127
0
CIRCLE
8
0
10
16.671428571429
20
1.2873
40
0.0127
0
CIRCLE
8
0
10
17.042857142857
20
1.2873
40
0.0127
0
CIRCLE
8
0
10
17.414285714286
20
1.2873
40
0.0127
0
CIRCLE
8
0
10
17.785714285714
20
1.2873
40
0.0127
0
CIRCLE
8
0
10
18.157142857143
20
1.2873
40
0.0127
0
CIRCLE
8
0
10
18.528571428571
20
1.2873
40
0.0127
0
CIRCLE
8
0
10
18.9
20
1.2873
40
0.0127
0
CIRCLE
8
0
10
16.3
20
3.9127
40
0.0127
0
CIRCLE
8
0
10
16.671428571429
20
3.9127
40
0.0127
0
CIRCLE
8
0
10
17.042857142857
20
3.9127
40
0.0127
0
CIRCLE
8
0
10
17.414285714286
20
3.9127
40
0.0127
0
CIRCLE
8
0
10
17.785714285714
20
3.9127
40
0.0127
0
CIRCLE
8
0
10
18.157142857143
20
3.9127
40
0.0127
0
CIRCLE
8
0
10
18.528571428571
20
3.9127
40
0.0127
0
CIRCLE
8
0
10
18.9
20
3.9127
40
0.0127
0
LINE
8
0
62
1
10
16.3
20
1.2873
11
16.2
21
1.06
0
LINE
8
0
62
1
10
16.3
20
3.9127
11
16.2
21
1.06
0
LINE
8
0
62
1
10
16.2
20
1.06
11
15.9
21
1.06
0
TEXT
8
0
62
0
10
15.9
20
1.07
40
0.05
1
2∅1/4"
0
LINE
8
0
62
1
10
16.671428571429
20
1.2873
11
16.571428571429
21
1.06
0
LINE
8
0
62
1
10
16.671428571429
20
3.9127
11
16.571428571429
21
1.06
0
LINE
8
0
62
1
10
16.571428571429
20
1.06
11
16.271428571429
21
1.06
0
TEXT
8
0
62
0
10
16.271428571429
20
1.07
40
0.05
1
2∅1/4"
0
LINE
8
0
62
1
10
17.042857142857
20
1.2873
11
16.942857142857
21
1.06
0
LINE
8
0
62
1
10
17.042857142857
20
3.9127
11
16.942857142857
21
1.06
0
LINE
8
0
62
1
10
16.942857142857
20
1.06
11
16.642857142857
21
1.06
0
TEXT
8
0
62
0
10
16.642857142857
20
1.07
40
0.05
1
2∅1/4"
0
LINE
8
0
62
1
10
17.414285714286
20
1.2873
11
17.314285714286
21
1.06
0
LINE
8
0
62
1
10
17.414285714286
20
3.9127
11
17.314285714286
21
1.06
0
LINE
8
0
62
1
10
17.314285714286
20
1.06
11
17.014285714286
21
1.06
0
TEXT
8
0
62
0
10
17.014285714286
20
1.07
40
0.05
1
2∅1/4"
0
LINE
8
0
62
1
10
17.785714285714
20
1.2873
11
17.685714285714
21
1.06
0
LINE
8
0
62
1
10
17.785714285714
20
3.9127
11
17.685714285714
21
1.06
0
LINE
8
0
62
1
10
17.685714285714
20
1.06
11
17.385714285714
21
1.06
0
TEXT
8
0
62
0
10
17.385714285714
20
1.07
40
0.05
1
2∅1/4"
0
LINE
8
0
62
1
10
18.157142857143
20
1.2873
11
18.057142857143
21
1.06
0
LINE
8
0
62
1
10
18.157142857143
20
3.9127
11
18.057142857143
21
1.06
0
LINE
8
0
62
1
10
18.057142857143
20
1.06
11
17.757142857143
21
1.06
0
TEXT
8
0
62
0
10
17.757142857143
20
1.07
40
0.05
1
2∅1/4"
0
LINE
8
0
62
1
10
18.528571428571
20
1.2873
11
18.428571428571
21
1.06
0
LINE
8
0
62
1
10
18.528571428571
20
3.9127
11
18.428571428571
21
1.06
0
LINE
8
0
62
1
10
18.428571428571
20
1.06
11
18.128571428571
21
1.06
0
TEXT
8
0
62
0
10
18.128571428571
20
1.07
40
0.05
1
2∅1/4"
0
LINE
8
0
62
1
10
18.9
20
1.2873
11
18.8
21
1.06
0
LINE
8
0
62
1
10
18.9
20
3.9127
11
18.8
21
1.06
0
LINE
8
0
62
1
10
18.8
20
1.06
11
18.5
21
1.06
0
TEXT
8
0
62
0
10
18.5
20
1.07
40
0.05
1
2∅1/4"
0
TEXT
8
0
10
16.2
20
0.6
40
0.1
1
16θ1/4"
0
TEXT
8
0
10
16.2
20
0.4
40
0.1
1
1 1/4"∅: 1@0.05, 4@0.10,
0
TEXT
8
0
10
16.2
20
0.2
40
0.1
1
Rst. @0.20 C/E
0
TEXT
8
0
10
17.6
20
4.9
40
0.1
1
pd
0
POLYLINE
8
0
66
1
70
8
62
5
0
VERTEX
8
0
10
21
20
1.2
30
0
0
VERTEX
8
0
10
23.4
20
1.2
30
0
0
VERTEX
8
0
10
23.4
20
2.4
30
0
0
VERTEX
8
0
10
21
20
2.4
30
0
0
VERTEX
8
0
10
21
20
1.2
30
0
0
SEQEND
0
LINE
8
0
62
7
10
21
20
2.45
11
23.4
21
2.45
0
TEXT
8
0
62
7
10
22.2
20
2.52
40
0.05
1
60
0
LINE
8
0
62
7
10
23.45
20
1.2
11
23.45
21
2.4
0
TEXT
8
0
10
23.47
20
1.8
40
0.05
1
30
0
LINE
8
0
62
8
10
21.1
20
1.28
11
23.3
21
1.28
0
LINE
8
0
62
8
10
23.32
20
1.3
11
23.32
21
2.3
0
LINE
8
0
62
8
10
23.3
20
2.32
11
21.1
21
2.32
0
LINE
8
0
62
8
10
21.08
20
2.3
11
21.08
21
1.3
0
ARC
8
0
62
8
10
21.1
20
1.3
40
0.02
50
180
51
270
0
ARC
8
0
62
8
10
23.3
20
1.3
40
0.02
50
270
51
0
0
ARC
8
0
62
8
10
23.3
20
2.3
40
0.02
50
0
51
90
0
ARC
8
0
62
8
10
21.1
20
2.3
40
0.02
50
90
51
180
0
LINE
8
0
62
8
10
21.12
20
1.3
11
23.28
21
1.3
0
LINE
8
0
62
8
10
23.3
20
1.32
11
23.3
21
2.28
0
LINE
8
0
62
8
10
23.28
20
2.3
11
21.12
21
2.3
0
LINE
8
0
62
8
10
21.1
20
2.28
11
21.1
21
1.32
0
ARC
8
0
62
8
10
21.12
20
1.32
40
0.02
50
180
51
270
0
ARC
8
0
62
8
10
23.28
20
1.32
40
0.02
50
270
51
0
0
ARC
8
0
62
8
10
23.28
20
2.28
40
0.02
50
0
51
90
0
ARC
8
0
62
8
10
21.12
20
2.28
40
0.02
50
90
51
180
0
LINE
8
0
10
23.261
20
2.32
11
22.461
21
1.92
62
8
0
LINE
8
0
10
22.461
20
1.92
11
23.261
21
2.32
62
8
0
LINE
8
0
10
23.32
20
2.261
11
22.52
21
1.861
62
8
0
LINE
8
0
10
22.52
20
1.861
11
23.32
21
2.261
62
8
0
LINE
8
0
10
23.261
20
2.3
11
22.519
21
1.94
62
8
0
LINE
8
0
10
22.519
20
1.94
11
23.261
21
2.3
62
8
0
LINE
8
0
10
23.3
20
2.261
11
22.52
21
1.901
62
8
0
LINE
8
0
10
22.52
20
1.901
11
23.3
21
2.261
62
8
0
CIRCLE
8
0
10
21.1
20
1.2873
40
0.0127
0
CIRCLE
8
0
10
23.3
20
1.2873
40
0.0127
0
CIRCLE
8
0
10
21.1
20
2.3127
40
0.0127
0
CIRCLE
8
0
10
23.3
20
2.3127
40
0.0127
0
LINE
8
0
62
1
10
21.1
20
1.2873
11
21
21
1.06
0
LINE
8
0
62
1
10
21.1
20
2.3127
11
21
21
1.06
0
LINE
8
0
62
1
10
21
20
1.06
11
20.7
21
1.06
0
TEXT
8
0
62
0
10
20.7
20
1.07
40
0.05
1
2∅1/4"
0
LINE
8
0
62
1
10
23.3
20
1.2873
11
23.2
21
1.06
0
LINE
8
0
62
1
10
23.3
20
2.3127
11
23.2
21
1.06
0
LINE
8
0
62
1
10
23.2
20
1.06
11
22.9
21
1.06
0
TEXT
8
0
62
0
10
22.9
20
1.07
40
0.05
1
2∅1/4"
0
TEXT
8
0
10
21
20
0.6
40
0.1
1
4θ1/4"
0
TEXT
8
0
10
21
20
0.4
40
0.1
1
1 1/4"∅: 1@0.05, 4@0.10,
0
TEXT
8
0
10
21
20
0.2
40
0.1
1
Rst. @0.20 C/E
0
TEXT
8
0
10
22.2
20
4.9
40
0.1
1
pe
0
POLYLINE
8
0
66
1
70
8
62
5
0
VERTEX
8
0
10
25.4
20
1.2
30
0
0
VERTEX
8
0
10
27.4
20
1.2
30
0
0
VERTEX
8
0
10
27.4
20
3.2
30
0
0
VERTEX
8
0
10
25.4
20
3.2
30
0
0
VERTEX
8
0
10
25.4
20
1.2
30
0
0
SEQEND
0
LINE
8
0
62
7
10
25.4
20
3.25
11
27.4
21
3.25
0
TEXT
8
0
62
7
10
26.4
20
3.32
40
0.05
1
50
0
LINE
8
0
62
7
10
27.45
20
1.2
11
27.45
21
3.2
0
TEXT
8
0
10
27.47
20
2.2
40
0.05
1
50
0
LINE
8
0
62
8
10
25.5
20
1.28
11
27.3
21
1.28
0
LINE
8
0
62
8
10
27.32
20
1.3
11
27.32
21
3.1
0
LINE
8
0
62
8
10
27.3
20
3.12
11
25.5
21
3.12
0
LINE
8
0
62
8
10
25.48
20
3.1
11
25.48
21
1.3
0
ARC
8
0
62
8
10
25.5
20
1.3
40
0.02
50
180
51
270
0
ARC
8
0
62
8
10
27.3
20
1.3
40
0.02
50
270
51
0
0
ARC
8
0
62
8
10
27.3
20
3.1
40
0.02
50
0
51
90
0
ARC
8
0
62
8
10
25.5
20
3.1
40
0.02
50
90
51
180
0
LINE
8
0
62
8
10
25.52
20
1.3
11
27.28
21
1.3
0
LINE
8
0
62
8
10
27.3
20
1.32
11
27.3
21
3.08
0
LINE
8
0
62
8
10
27.28
20
3.1
11
25.52
21
3.1
0
LINE
8
0
62
8
10
25.5
20
3.08
11
25.5
21
1.32
0
ARC
8
0
62
8
10
25.52
20
1.32
40
0.02
50
180
51
270
0
ARC
8
0
62
8
10
27.28
20
1.32
40
0.02
50
270
51
0
0
ARC
8
0
62
8
10
27.28
20
3.08
40
0.02
50
0
51
90
0
ARC
8
0
62
8
10
25.52
20
3.08
40
0.02
50
90
51
180
0
LINE
8
0
10
27.261
20
3.12
11
26.594333333333
21
2.4533333333333
62
8
0
LINE
8
0
10
26.594333333333
20
2.4533333333333
11
27.261
21
3.12
62
8
0
LINE
8
0
10
27.32
20
3.061
11
26.653333333333
21
2.3943333333333
62
8
0
LINE
8
0
10
26.653333333333
20
2.3943333333333
11
27.32
21
3.061
62
8
0
LINE
8
0
10
27.261
20
3.1
11
26.652333333333
21
2.4733333333333
62
8
0
LINE
8
0
10
26.652333333333
20
2.4733333333333
11
27.261
21
3.1
62
8
0
LINE
8
0
10
27.3
20
3.061
11
26.653333333333
21
2.4343333333333
62
8
0
LINE
8
0
10
26.653333333333
20
2.4343333333333
11
27.3
21
3.061
62
8
0
CIRCLE
8
0
10
25.5
20
1.2873
40
0.0127
0
CIRCLE
8
0
10
27.3
20
1.2873
40
0.0127
0
CIRCLE
8
0
10
25.5
20
3.1127
40
0.0127
0
CIRCLE
8
0
10
27.3
20
3.1127
40
0.0127
0
LINE
8
0
62
1
10
25.5
20
1.2873
11
25.4
21
1.06
0
LINE
8
0
62
1
10
25.5
20
3.1127
11
25.4
21
1.06
0
LINE
8
0
62
1
10
25.4
20
1.06
11
25.1
21
1.06
0
TEXT
8
0
62
0
10
25.1
20
1.07
40
0.05
1
2∅1/4"
0
LINE
8
0
62
1
10
27.3
20
1.2873
11
27.2
21
1.06
0
LINE
8
0
62
1
10
27.3
20
3.1127
11
27.2
21
1.06
0
LINE
8
0
62
1
10
27.2
20
1.06
11
26.9
21
1.06
0
TEXT
8
0
62
0
10
26.9
20
1.07
40
0.05
1
2∅1/4"
0
TEXT
8
0
10
25.4
20
0.6
40
0.1
1
4θ1/4"
0
TEXT
8
0
10
25.4
20
0.4
40
0.1
1
1 1/4"∅: 1@0.05, 4@0.10,
0
TEXT
8
0
10
25.4
20
0.2
40
0.1
1
Rst. @0.20 C/E
0
TEXT
8
0
10
26.4
20
4.9
40
0.1
1
pf
0
LINE
8
0
10
5.6
20
0
30
0
11
5.6
21
5.1
31
0
62
1
0
LINE
8
0
10
10.8
20
0
30
0
11
10.8
21
5.1
31
0
62
1
0
LINE
8
0
10
15.2
20
0
30
0
11
15.2
21
5.1
31
0
62
1
0
LINE
8
0
10
20
20
0
30
0
11
20
21
5.1
31
0
62
1
0
LINE
8
0
10
24.4
20
0
30
0
11
24.4
21
5.1
31
0
62
1
0
LINE
8
0
10
28.4
20
0
30
0
11
28.4
21
5.1
31
0
62
1
0
POLYLINE
8
0
66
1
70
8
62
1
0
VERTEX
8
0
10
0
20
0
0
VERTEX
8
0
10
28.4
20
0
0
VERTEX
8
0
10
28.4
20
5.7
0
VERTEX
8
0
10
0
20
5.7
0
VERTEX
8
0
10
0
20
0
0
TEXT
8
0
10
0.2
20
5.4
40
0.1
1
ESCALA:
0
TEXT
8
0
10
0.3
20
5.2
40
0.1
1
 1/25
0
TEXT
8
0
10
14.2
20
5.3
40
0.1
1
CUADRO DE COLUMNA
0
TEXT
8
0
10
0.2
20
4.9
40
0.1
1
NIVEL
0
TEXT
8
0
10
1.15
20
4.9
40
0.1
1
CONCRETO
0
TEXT
8
0
10
1
20
4.7
40
0.1
1
fc'(Kg/cm2)
0
TEXT
8
0
10
0.2
20
4.3
40
0.1
1
1° PISO
0
TEXT
8
0
10
0.2
20
4.1
40
0.1
1
2° PISO
0
TEXT
8
0
10
0.2
20
3.9
40
0.1
1
AZOTEA
0
TEXT
8
0
10
1.3
20
3.9
40
0.1
1
175
0
TEXT
8
0
10
0.5
20
0.5
40
0.1
1
ESFUERZO Y
0
TEXT
8
0
10
0.5
20
0.3
40
0.1
1
ESTRIBAJE
0
SEQEND
62
1
0
LINE
8
0
10
1
20
1
11
1
21
5.7
62
1
0
LINE
8
0
10
1
20
5.7
11
1
21
1
62
1
0
LINE
8
0
10
2
20
0
11
2
21
5.1
62
1
0
LINE
8
0
10
2
20
5.1
11
2
21
0
62
1
0
LINE
8
0
10
0
20
5.1
11
28.4
21
5.1
62
1
0
LINE
8
0
10
28.4
20
5.1
11
0
21
5.1
62
1
0
LINE
8
0
10
0
20
4.6
11
28.4
21
4.6
0
LINE
8
0
10
28.4
20
4.6
11
0
21
4.6
62
1
0
LINE
8
0
10
0
20
1
11
28.4
21
1
0
LINE
8
0
10
28.4
20
1
11
0
21
1
62
1
0
ENDSEC
0
EOF